<?xml version="1.0" encoding="UTF-8"?>
<svg version="1.1" xmlns="http://www.w3.org/2000/svg" width="2000" height="2000"  viewBox="0 -250 2000 2000" preserveAspectRatio="xMidYMid meet">
<path d="M0 0 C1.13949097 0.00966797 1.13949097 0.00966797 2.30200195 0.01953125 C8.24003 0.21382256 12.41145127 1.13821595 16.6875 5.5 C17.47447266 6.30244141 17.47447266 6.30244141 18.27734375 7.12109375 C27.92844044 18.54033029 31.2684549 35.37891643 35.36206055 49.39941406 C45.86501062 85.2088764 64.26927865 111.76627792 97.3125 130.125 C107.42562292 135.62050859 117.89759918 140.31693268 128.375 145.0625 C152.84153345 156.14995824 174.24408717 168.78754254 193.6875 187.5 C194.39003906 188.139375 195.09257813 188.77875 195.81640625 189.4375 C218.86281451 211.04059784 232.3471069 243.91411226 237.6875 274.5 C240.90577094 271.79372671 244.07695999 269.08212001 247.12109375 266.1796875 C260.53345483 253.43318832 275.51033701 242.46846651 291.6875 233.5 C292.33187012 233.13213379 292.97624023 232.76426758 293.64013672 232.38525391 C330.93983169 211.12415624 371.79927973 204.97880342 414.14892578 205.67138672 C431.10078294 205.93227472 448.1172052 205.17539108 464.25 199.4375 C465.10730713 199.14077393 465.96461426 198.84404785 466.84790039 198.53833008 C485.47173099 191.81528963 501.87505374 181.30446688 516.25390625 167.78125 C518.28607283 165.8762977 520.35699267 164.08852299 522.5 162.3125 C527.16702806 158.27796445 531.22783897 153.66822408 535.39355469 149.13037109 C539.60593825 144.57205942 543.96960497 140.41482794 548.66015625 136.34765625 C550.39737105 134.76441425 551.77871236 133.24200923 553.1875 131.375 C557.77232252 126.1024541 564.08216936 121.06936013 571.18359375 120.19140625 C581.15225527 119.75453264 589.10936233 122.9581274 596.5625 129.625 C609.19632565 143.46647075 607.51647079 161.78548821 606.81512451 179.16339111 C604.10224976 228.83196318 590.35966069 280.95212766 568.6875 325.5 C568.2239209 326.45841797 567.7603418 327.41683594 567.28271484 328.40429688 C556.99293548 349.46276372 544.62163273 369.39802093 529.6875 387.5 C529.23971191 388.04785156 528.79192383 388.59570312 528.33056641 389.16015625 C515.65237328 404.57573551 501.54088967 419.33881171 485.6875 431.5 C484.52965275 432.44306607 483.37492977 433.38997555 482.22265625 434.33984375 C473.72847714 441.31649099 464.99632154 447.65599494 455.6875 453.5 C454.94935059 453.96374023 454.21120117 454.42748047 453.45068359 454.90527344 C408.24027743 483.0876503 359.78095159 499.01256457 307.20239258 506.45947266 C306.41443802 506.5745517 305.62648346 506.68963074 304.81465149 506.80819702 C303.34270203 507.02249012 301.86949553 507.22839887 300.39494324 507.42398071 C295.99613516 508.06989683 292.48441578 509.17122969 288.6875 511.5 C285.53452163 516.80574721 285.27343892 521.3697259 285.4375 527.4375 C285.44845703 528.27958008 285.45941406 529.12166016 285.47070312 529.98925781 C285.55646602 534.92435334 285.8184425 539.82742421 286.1875 544.75 C287.98204654 572.74492602 285.39508748 598.91688839 280.6875 626.5 C280.42232574 628.05509277 280.42232574 628.05509277 280.15179443 629.64160156 C265.0793044 717.50314922 243.18945024 804.31703415 81.77490234 1090.66088867 C78.84407488 1094.1119662 75.97009729 1097.60249859 73.125 1101.125 C69.29496841 1105.83573404 65.24875836 1110.30485118 61.13671875 1114.76953125 C58.82689418 1117.34459883 56.65506987 1119.98254363 54.5 1122.6875 C49.99722335 1128.27383253 45.12383217 1133.4706212 40.17895508 1138.66674805 C33.81341998 1145.36282888 27.80221839 1152.34376697 21.8125 1159.375 C17.48403275 1164.45137835 13.07313397 1169.43200969 8.52734375 1174.31640625 C6.61467443 1176.58643205 5.14398143 1178.91826189 3.6875 1181.5 C14.38273028 1189.74118772 25.2475135 1194.08367407 37.98828125 1198.22265625 C76.79617655 1210.86527626 114.09716487 1227.9454921 151.14501953 1244.97496033 C155.19544343 1246.83174198 159.26490462 1248.63795236 163.3515625 1250.4140625 C164.86278687 1251.07752686 164.86278687 1251.07752686 166.40454102 1251.75439453 C168.21241836 1252.54579652 170.02496614 1253.32667781 171.84350586 1254.09326172 C179.34995148 1257.40360956 186.1806027 1261.9774434 189.625 1269.6875 C190.00527344 1270.50605469 190.38554688 1271.32460937 190.77734375 1272.16796875 C194.72911551 1282.29332385 193.94560902 1295.8346634 190.01171875 1305.828125 C187.713525 1310.46518849 184.97030365 1314.50648628 181.6875 1318.5 C181.11386719 1319.19867187 180.54023437 1319.89734375 179.94921875 1320.6171875 C155.08115118 1347.98803703 96.12307444 1349.18767941 62.125 1351.1796875 C-3.58975275 1354.32178633 -78.1864525 1348.76233893 -138.7512207 1321.56152344 C-139.68667725 1321.14805664 -140.62213379 1320.73458984 -141.5859375 1320.30859375 C-142.40497559 1319.93532959 -143.22401367 1319.56206543 -144.06787109 1319.17749023 C-146.66327296 1318.39412715 -147.81620472 1318.49960473 -150.3125 1319.5 C-152.45481784 1321.19978707 -154.47469802 1322.92063021 -156.5 1324.75 C-164.46597009 1331.75132443 -172.80788826 1338.17000462 -181.3125 1344.5 C-182.31579346 1345.25071777 -182.31579346 1345.25071777 -183.33935547 1346.01660156 C-209.28692288 1365.35852757 -236.65584315 1382.86461277 -265.09570312 1398.29541016 C-266.55786271 1399.08993608 -268.01756804 1399.88899757 -269.47460938 1400.69287109 C-341.99456833 1440.66385839 -424.50879177 1460.37728019 -607.38818359 1472.89111328 C-612.34642221 1472.87392808 -617.30418068 1472.88427589 -622.26240349 1472.90143585 C-646.76771616 1472.97324528 -670.94036338 1472.0906804 -695.3125 1469.5 C-696.3180896 1469.39540466 -697.3236792 1469.29080933 -698.35974121 1469.18304443 C-703.64831385 1468.62336971 -708.9194222 1467.97655477 -714.1875 1467.25 C-715.33427216 1467.09460251 -715.33427216 1467.09460251 -716.50421143 1466.93606567 C-795.65871867 1456.14281632 -871.49193114 1432.40333874 -943.07128906 1397.09716797 C-945.96707651 1395.67021396 -948.86886412 1394.25660727 -951.7734375 1392.84765625 C-988.53869642 1374.8974537 -1023.20586954 1352.46998404 -1056.3125 1328.5 C-1057.06934082 1327.95424316 -1057.82618164 1327.40848633 -1058.60595703 1326.84619141 C-1069.22164969 1319.17461876 -1079.5358085 1311.22316746 -1089.63183594 1302.88085938 C-1091.8993871 1301.01780455 -1094.19831347 1299.19562664 -1096.5 1297.375 C-1101.96279866 1293.01570491 -1107.28503698 1288.49388159 -1112.60058594 1283.95751953 C-1114.30472891 1282.50661629 -1116.01506337 1281.0633079 -1117.7265625 1279.62109375 C-1125.25332274 1273.25516652 -1132.52521984 1266.66286721 -1139.6953125 1259.8984375 C-1141.87865795 1257.83887226 -1144.07439507 1255.79767375 -1146.3046875 1253.7890625 C-1153.99126897 1246.8364782 -1161.35186489 1239.5689202 -1168.6875 1232.25 C-1169.20996307 1231.73012512 -1169.73242615 1231.21025024 -1170.27072144 1230.67462158 C-1175.59730459 1225.36886461 -1180.84323319 1220.04051784 -1185.73388672 1214.32373047 C-1188.45101354 1211.1847052 -1191.33218753 1208.20028339 -1194.1875 1205.1875 C-1199.02230198 1200.04630279 -1203.63989993 1194.8137549 -1208.046875 1189.296875 C-1210.69186272 1186.03168326 -1213.43561845 1182.86247952 -1216.1875 1179.6875 C-1222.12606749 1172.79674135 -1227.78774421 1165.72576202 -1233.3125 1158.5 C-1233.87839844 1157.76007813 -1234.44429687 1157.02015625 -1235.02734375 1156.2578125 C-1261.26555984 1121.83778709 -1284.732123 1085.58265779 -1304.85205078 1047.26074219 C-1306.09470261 1044.91171061 -1307.36149336 1042.58054814 -1308.65234375 1040.2578125 C-1321.45651754 1017.07338492 -1331.7493362 992.15687503 -1341.3125 967.5 C-1341.97644775 965.79239502 -1341.97644775 965.79239502 -1342.65380859 964.05029297 C-1370.31421099 892.28840758 -1386.12804513 816.06906436 -1392.3125 739.5 C-1392.44242844 737.89811577 -1392.44242844 737.89811577 -1392.57498169 736.26387024 C-1393.31613143 726.28724082 -1393.49250544 716.36316505 -1393.515625 706.36328125 C-1393.51845238 705.51730062 -1393.52127975 704.67132 -1393.52419281 703.7997036 C-1393.53908126 699.30372194 -1393.5483703 694.80777138 -1393.55273438 690.31176758 C-1393.55707481 686.68308208 -1393.57080759 683.05464029 -1393.59375 679.42602539 C-1394.08107 600.67374897 -1380.18575071 523.14868798 -1336.60693359 416.21240234 C-1335.44792827 413.78378124 -1334.31882698 411.34503084 -1333.20703125 408.89453125 C-1309.96886698 357.83794399 -1276.35712666 309.43475798 -1238.578125 268.01171875 C-1236.7324285 265.96554142 -1234.92717051 263.89534345 -1233.12695312 261.80957031 C-1229.56417347 257.73612789 -1225.83793846 253.86422864 -1222.015625 250.03515625 C-1221.3413446 249.35754745 -1220.66706421 248.67993866 -1219.97235107 247.98179626 C-1218.55513926 246.55955939 -1217.13660433 245.13863981 -1215.71679688 243.71899414 C-1213.57652078 241.57653508 -1211.44438019 239.4262001 -1209.3125 237.27539062 C-1202.6693427 230.60551848 -1196.05016845 224.13968826 -1188.62353516 218.33740234 C-1186.12218527 216.34868913 -1183.78168201 214.23328839 -1181.4375 212.0625 C-1151.29969481 184.71173322 -1114.4876354 163.56712317 -1078.3125 145.5 C-1077.46026855 145.06993652 -1076.60803711 144.63987305 -1075.72998047 144.19677734 C-1011.98574203 112.17291755 -940.02868809 97.70741403 -869.3125 92.5 C-868.60814819 92.44779297 -867.90379639 92.39558594 -867.17810059 92.34179688 C-802.18918198 87.59802675 -737.4091489 90.9846291 -673.16941833 101.57408142 C-671.21878692 101.89313407 -669.26564579 102.19671955 -667.3125 102.5 C-666.6258728 102.61145355 -665.93924561 102.7229071 -665.23181152 102.83773804 C-661.14614299 103.44163284 -657.88523176 103.5167702 -653.8984375 102.453125 C-652.90658447 102.19128418 -651.91473145 101.92944336 -650.89282227 101.65966797 C-649.83506592 101.35947754 -648.77730957 101.05928711 -647.6875 100.75 C-646.5543335 100.43562988 -645.42116699 100.12125977 -644.25366211 99.79736328 C-631.01343265 96.00824541 -618.16544985 91.14971589 -605.30419922 86.25714111 C-568.22912559 72.16311413 -530.86394217 58.0207541 -492.3125 48.5 C-491.21292969 48.22510742 -490.11335937 47.95021484 -488.98046875 47.66699219 C-442.15003875 36.06841945 -377.44805335 23.62096651 -332.72265625 47.90625 C-327.56382213 51.05004519 -324.50701013 53.81422376 -322.3125 59.5 C-322.24021388 63.69259478 -322.62940516 65.67548319 -325.3125 68.9140625 C-329.04910426 72.13493752 -332.96752712 74.09100727 -337.375 76.25 C-345.39278685 80.33884287 -352.42153834 84.65745575 -359.3125 90.5 C-359.83505371 90.94037598 -360.35760742 91.38075195 -360.89599609 91.83447266 C-378.3993799 106.75360353 -394.53743455 127.3569083 -396.52685547 151.05322266 C-398.0072592 177.00410053 -389.10715267 197.13336623 -372.3125 216.5 C-371.28962891 217.72783203 -371.28962891 217.72783203 -370.24609375 218.98046875 C-364.43586307 225.40469641 -357.24637342 229.38984779 -349.8671875 233.75 C-344.03923603 237.21618688 -338.61200199 241.16104469 -333.14892578 245.16699219 C-330.42003321 247.14781557 -327.65699132 249.07904803 -324.89575195 251.0144043 C-317.25632865 256.37002432 -309.72748936 261.83618896 -302.3125 267.5 C-301.52431885 268.09893066 -301.52431885 268.09893066 -300.72021484 268.70996094 C-289.18577997 277.47626831 -278.03141655 286.66977547 -267.00390625 296.06298828 C-265.31957393 297.49399002 -263.6290372 298.91737035 -261.9375 300.33984375 C-253.59617263 307.38424001 -245.61017337 314.75695925 -237.69088745 322.27038574 C-235.54625135 324.28087029 -233.37721457 326.26184715 -231.20238686 328.2395134 C-222.16364823 336.49144337 -213.52916588 345.13786593 -204.8828125 353.796875 C-203.23678889 355.44222313 -201.59061703 357.08742295 -199.94430542 358.73248291 C-196.5188632 362.15646169 -193.09520852 365.58221485 -189.67285156 369.00927734 C-185.30209028 373.38575778 -180.92682306 377.75770172 -176.55021858 382.12833786 C-173.15967521 385.51525818 -169.77152879 388.90456826 -166.38409042 392.29459381 C-164.77179056 393.90755694 -163.1587581 395.51978815 -161.54495621 397.13124847 C-159.28941453 399.38423232 -157.03713356 401.64042805 -154.78564453 403.89746094 C-154.12992966 404.55115158 -153.47421478 405.20484222 -152.79862976 405.87834167 C-149.02403584 409.67005047 -145.4543326 413.58225964 -141.95614243 417.6296711 C-139.62904374 420.2777166 -137.17991845 422.75982005 -134.68774414 425.25415039 C-133.91544716 426.02907585 -133.91544716 426.02907585 -133.12754822 426.81965637 C-131.45339425 428.49815101 -129.77568096 430.17303198 -128.09765625 431.84765625 C-126.915987 433.03000077 -125.73446609 434.21249357 -124.55308533 435.39512634 C-122.08787277 437.86180534 -119.62088114 440.32668703 -117.15258789 442.7902832 C-114.00795516 445.92921932 -110.86783444 449.07262471 -107.72904301 452.21740055 C-105.29345768 454.65662006 -102.85547011 457.09342741 -100.41677666 459.52953911 C-99.25876161 460.68689277 -98.10147307 461.84497387 -96.94496346 463.00383186 C-91.42063847 468.53691397 -85.90556273 474.03649844 -79.94464111 479.10597229 C-77.75034103 480.98014548 -75.65264251 482.94975907 -73.5480957 484.92333984 C-67.35095674 490.73444034 -60.98078134 496.23071738 -54.3125 501.5 C-53.68279297 502.00225098 -53.05308594 502.50450195 -52.40429688 503.02197266 C-26.17668382 523.91400592 1.65876895 541.55347455 31.6875 556.5 C32.56229004 556.93602539 33.43708008 557.37205078 34.33837891 557.82128906 C51.18356308 566.88320864 51.18356308 566.88320864 69.65234375 569.4453125 C73.99606417 567.42769188 76.32723172 563.3280163 78.16625977 559.10131836 C78.56643311 557.86003174 78.96660645 556.61874512 79.37890625 555.33984375 C79.71928673 554.30390579 79.71928673 554.30390579 80.06654358 553.24703979 C80.80751169 550.98122794 81.52889298 548.70970271 82.25 546.4375 C82.76557509 544.84621251 83.2823605 543.2553167 83.80029297 541.66479492 C84.88436311 538.32862391 85.96038612 534.99000309 87.03076172 531.64941406 C88.68467036 526.49507703 90.37324627 521.35248862 92.06640625 516.2109375 C92.88507537 513.71728879 93.70292401 511.22337332 94.52023315 508.72927856 C95.04377617 507.13223139 95.56811486 505.5354448 96.09329224 503.93893433 C102.69265949 486.83778044 102.69265949 486.83778044 100.25 469.5 C93.82851108 461.98215931 85.21116992 456.74992571 77.15307617 451.14086914 C70.94084339 446.77331084 65.193972 442.03676741 59.48876953 437.03027344 C58.12021185 435.86761153 56.72562937 434.73550229 55.31982422 433.61816406 C48.1734746 427.92853547 41.67319545 421.79518891 35.24365234 415.31689453 C33.56435572 413.62686758 31.87461031 411.94782236 30.18359375 410.26953125 C23.57209749 403.66655582 17.47728605 396.84755623 11.6875 389.5 C10.6397294 388.22148511 9.58928379 386.94515372 8.53515625 385.671875 C1.68192708 377.28945246 -4.53284833 368.65415194 -10.3125 359.5 C-10.67907715 358.92378906 -11.0456543 358.34757812 -11.42333984 357.75390625 C-60.43966626 280.1722106 -73.70356185 181.97893429 -53.8984375 92.96484375 C-48.23130403 68.75611998 -39.03146256 46.55040185 -27.8125 24.4375 C-27.29091309 23.39053955 -26.76932617 22.3435791 -26.23193359 21.26489258 C-20.34909841 9.87749562 -13.81432953 -0.12079422 0 0 Z M-1199.3125 530.5 C-1201.03049805 530.72478027 -1201.03049805 530.72478027 -1202.78320312 530.95410156 C-1230.98724811 534.15204781 -1230.98724811 534.15204781 -1253.75 549.375 C-1259.34280188 557.66940956 -1260.50652158 566.35456809 -1260.44921875 576.24609375 C-1260.44645432 576.97976669 -1260.44368988 577.71343964 -1260.44084167 578.46934509 C-1260.3600743 587.18974668 -1259.78124876 595.86926153 -1259.125 604.5625 C-1259.06003326 605.43795471 -1258.99506653 606.31340942 -1258.9281311 607.21539307 C-1253.17542369 683.67577653 -1236.49458216 758.82405148 -1155.79833984 949.85644531 C-1154.25468578 952.60286105 -1152.73008004 955.35929834 -1151.20703125 958.1171875 C-1133.19800719 990.55881894 -1112.57740391 1021.58186756 -1089.3125 1050.5 C-1088.80750977 1051.13115723 -1088.30251953 1051.76231445 -1087.78222656 1052.41259766 C-1074.00221801 1069.62276834 -1059.65743788 1086.39506537 -1043.91601562 1101.85473633 C-1042.24811192 1103.56606445 -1040.71443957 1105.35003525 -1039.1875 1107.1875 C-1035.50449343 1111.46775088 -1031.39471905 1115.20391903 -1027.22338867 1118.99560547 C-1023.89593495 1122.02369852 -1020.65788481 1125.10535875 -1017.5 1128.3125 C-1013.59954093 1132.25520231 -1009.53322431 1135.9053498 -1005.3125 1139.5 C-1004.2600354 1140.40450448 -1003.2079864 1141.30949265 -1002.15625 1142.21484375 C-999.14829103 1144.80223059 -996.13353027 1147.38154615 -993.11621094 1149.95800781 C-991.40045684 1151.42480572 -989.68832907 1152.89574033 -987.9765625 1154.3671875 C-981.2243805 1160.15186227 -974.32625795 1165.70275398 -967.22509766 1171.05566406 C-965.0965998 1172.6630413 -962.97631155 1174.28097492 -960.85546875 1175.8984375 C-942.88501808 1189.54798507 -924.40840723 1202.4729286 -905.3125 1214.5 C-904.47976563 1215.02722656 -903.64703125 1215.55445313 -902.7890625 1216.09765625 C-896.66982323 1219.96480013 -890.51660888 1223.77044281 -884.3125 1227.5 C-883.65072754 1227.89848145 -882.98895508 1228.29696289 -882.30712891 1228.70751953 C-844.97947492 1250.82352821 -788.17452623 1265.94845679 -744.9375 1255.8125 C-728.99099773 1251.67401186 -713.14880713 1244.50849491 -704.51171875 1230 C-700.73695142 1222.1307782 -702.07729594 1214.3311224 -704.671875 1206.328125 C-707.19328538 1199.93382827 -711.27278268 1194.31849497 -715.015625 1188.59375 C-728.61734849 1167.76460184 -738.21381586 1146.60483432 -744.3125 1122.5 C-744.580625 1121.47648437 -744.84875 1120.45296875 -745.125 1119.3984375 C-747.56240673 1108.46396008 -748.70823288 1092.64321516 -743.3125 1082.5 C-738.87865553 1075.85496178 -734.55322077 1073.05805212 -727 1070.8125 C-693.09274613 1066.86979606 -656.79331924 1090.04854381 -629.00292969 1106.87988281 C-626.52870651 1108.36980523 -624.03947365 1109.82803449 -621.5390625 1111.2734375 C-604.97681769 1120.91101053 -589.18000985 1131.77314514 -573.3125 1142.5 C-572.30074707 1143.18368652 -571.28899414 1143.86737305 -570.24658203 1144.57177734 C-549.63363664 1158.53029766 -529.29097918 1172.92064328 -509.41723633 1187.91455078 C-505.0841139 1191.18159177 -500.72267531 1194.40684906 -496.34399414 1197.61254883 C-486.86464873 1204.55496483 -477.55708215 1211.69197471 -468.30957031 1218.93945312 C-465.48976395 1221.14290084 -462.65217472 1223.32220435 -459.8125 1225.5 C-455.48309903 1228.82319597 -451.16854269 1232.16442381 -446.86401367 1235.51977539 C-444.54838926 1237.32349132 -442.22940489 1239.12282258 -439.91015625 1240.921875 C-436.96638661 1243.20673921 -434.03792421 1245.50900005 -431.12109375 1247.828125 C-376.10231618 1291.2454573 -306.81610096 1304.68109622 -238.125 1304.75 C-237.06032501 1304.75233643 -235.99565002 1304.75467285 -234.89871216 1304.75708008 C-215.24431531 1304.77326244 -195.8448611 1303.62853863 -176.3125 1301.5 C-179.04901719 1299.28293053 -181.77185853 1297.11359946 -184.703125 1295.16015625 C-185.32123047 1294.7439502 -185.93933594 1294.32774414 -186.57617188 1293.89892578 C-187.23166016 1293.45790527 -187.88714844 1293.01688477 -188.5625 1292.5625 C-202.46161125 1283.09606091 -215.56476664 1272.61298322 -228.55224609 1261.94433594 C-230.13145584 1260.64855163 -231.71579286 1259.35902202 -233.30078125 1258.0703125 C-243.08359046 1250.11381644 -252.72903653 1242.01604373 -262.0625 1233.53515625 C-264.06239375 1231.72622457 -266.08519432 1229.95108199 -268.125 1228.1875 C-279.17215288 1218.52942296 -289.65019709 1208.32305509 -300.0078125 1197.93505859 C-302.20198502 1195.73547928 -304.40151723 1193.54135993 -306.6015625 1191.34765625 C-308.02375856 1189.9248 -309.44564471 1188.50163391 -310.8671875 1187.078125 C-311.51211151 1186.43522522 -312.15703552 1185.79232544 -312.82150269 1185.12994385 C-316.62049964 1181.31157594 -320.23722083 1177.38269934 -323.75079346 1173.29981995 C-326.15661061 1170.52718784 -328.67635263 1167.86433829 -331.1875 1165.1875 C-335.72276544 1160.31760188 -339.99930551 1155.30345476 -344.16796875 1150.11328125 C-346.31124956 1147.50152377 -348.5363033 1144.99634698 -350.8125 1142.5 C-355.51713572 1137.3249007 -359.91768139 1131.93858803 -364.3125 1126.5 C-365.31167657 1125.28057483 -366.31172565 1124.06186423 -367.3125 1122.84375 C-374.58072119 1113.9803088 -381.62056967 1104.96740373 -388.54101562 1095.83056641 C-390.44027078 1093.33190465 -392.35188558 1090.84305211 -394.265625 1088.35546875 C-401.511961 1078.92191848 -408.59638842 1069.41496289 -415.3984375 1059.65625 C-417.89067171 1056.08387913 -420.43931581 1052.55590443 -423.00512695 1049.03613281 C-430.55960158 1038.66595121 -437.80371971 1028.10179183 -444.98260498 1017.46911621 C-446.4734208 1015.26173175 -447.96542505 1013.05515314 -449.45751953 1010.84863281 C-462.11583228 992.12688581 -474.74418489 973.3865105 -487.25 954.5625 C-494.62247656 943.46632708 -502.13087073 932.48355331 -509.82910156 921.60986328 C-512.21151648 918.2213133 -514.5408995 914.7969144 -516.875 911.375 C-521.85764389 904.08836542 -527.01486111 896.93412712 -532.203125 889.79296875 C-534.08425799 887.20269662 -535.95312477 884.60529007 -537.796875 881.98828125 C-545.3466085 871.27324272 -553.32105365 860.88791627 -561.3125 850.5 C-561.9430127 849.67822266 -562.57352539 848.85644531 -563.22314453 848.00976562 C-569.89311397 839.32378688 -576.65746702 830.7617673 -583.79296875 822.453125 C-586.22066136 819.60764343 -588.5856706 816.72080717 -590.9375 813.8125 C-594.56435281 809.35665226 -598.3391267 805.06768445 -602.20703125 800.8203125 C-604.04167685 798.79845816 -605.84018786 796.75321478 -607.625 794.6875 C-617.68442961 783.18604768 -628.34343732 772.30991454 -639.15917969 761.52294922 C-641.57603992 759.11149034 -643.9874529 756.69467561 -646.3984375 754.27734375 C-647.95801251 752.71842898 -649.5178974 751.15982414 -651.078125 749.6015625 C-651.78664612 748.89101715 -652.49516724 748.1804718 -653.22515869 747.44839478 C-657.2039567 743.48800243 -661.27749634 739.6975541 -665.53575134 736.03863525 C-668.30254801 733.64263463 -670.95592873 731.1285442 -673.625 728.625 C-678.4189914 724.16495644 -683.33760996 719.93690447 -688.4453125 715.8359375 C-691.72829697 713.16124443 -694.92489704 710.39765875 -698.125 707.625 C-704.35760588 702.25282168 -710.73408573 697.10686277 -717.25292969 692.08691406 C-718.72710406 690.95105188 -720.19883513 689.81201588 -721.66894531 688.67089844 C-733.06979312 679.82609691 -744.61668591 671.3175616 -756.6171875 663.3046875 C-759.62834826 661.28851899 -762.62650315 659.2537011 -765.625 657.21875 C-788.47735948 641.75329426 -812.09013253 627.72081615 -836.3125 614.5 C-837.23643555 613.99404297 -838.16037109 613.48808594 -839.11230469 612.96679688 C-875.14281163 593.35607277 -913.51977576 577.70924314 -952.3125 564.5 C-953.48441895 564.09716797 -954.65633789 563.69433594 -955.86376953 563.27929688 C-1003.42980427 547.03566656 -1052.58733397 536.48328454 -1102.3125 529.5 C-1103.32844238 529.35304688 -1104.34438477 529.20609375 -1105.39111328 529.0546875 C-1136.03727234 524.79874814 -1168.73582379 526.40289863 -1199.3125 530.5 Z M-347.18359375 604.88671875 C-352.3642886 611.2461405 -356.44571683 617.10733969 -356.3125 625.5 C-355.14610244 631.08742056 -353.29996277 635.33661975 -349.3125 639.5 C-346.72752788 641.14543486 -344.02269243 642.45225017 -341.25 643.75 C-340.17008789 644.2759375 -340.17008789 644.2759375 -339.06835938 644.8125 C-334.15650803 647.18405311 -330.11335593 648.61060274 -324.60546875 648.9296875 C-323.46803223 649.00098877 -322.3305957 649.07229004 -321.15869141 649.14575195 C-319.95132324 649.22140381 -318.74395508 649.29705566 -317.5 649.375 C-294.57069759 650.96810663 -273.74673958 655.71405316 -257.34375 673.09765625 C-245.5339204 687.06505087 -242.90532516 701.72677001 -244.3125 719.5 C-244.87557399 724.18763742 -245.70883646 728.81806934 -246.578125 733.45703125 C-251.06160737 757.39681959 -248.98895901 784.72726509 -235.3125 805.5 C-228.26274144 815.35771324 -219.76799617 823.60103071 -210.30078125 831.1171875 C-208.21616411 832.77943123 -206.18587974 834.45720367 -204.16796875 836.1953125 C-184.76456011 852.60431484 -158.86372908 861.19267721 -133.42724609 859.6953125 C-119.58786319 858.41714276 -106.28526993 854.29505565 -93.3125 849.5 C-92.18972656 849.09910156 -91.06695313 848.69820312 -89.91015625 848.28515625 C-79.59832807 844.34356942 -70.58793447 838.93908951 -65.33984375 828.9296875 C-60.97047083 818.59603747 -65.32400366 808.49182693 -69.3125 798.625 C-80.80341879 771.27655151 -96.67746886 746.70290337 -113.1875 722.1875 C-113.71539124 721.4021286 -114.24328247 720.6167572 -114.78717041 719.80758667 C-127.03086817 701.628294 -140.56038247 684.6626546 -154.91943359 668.10888672 C-156.13583985 666.70402916 -157.34402101 665.29205829 -158.55078125 663.87890625 C-164.21423287 657.38353518 -170.45776108 651.59871706 -176.7890625 645.76953125 C-179.50857394 643.26147365 -182.15672748 640.70189792 -184.75 638.0625 C-188.44257844 634.33072221 -192.29420784 630.87787684 -196.3125 627.5 C-197.13234375 626.80148926 -197.13234375 626.80148926 -197.96875 626.08886719 C-233.94934116 595.53966823 -307.64150994 561.95717471 -347.18359375 604.88671875 Z M-338.75 697.6875 C-343.01611171 703.28677162 -344.67911713 709.64111877 -344.25 716.625 C-343.12878684 724.15483152 -340.18776231 729.57007644 -334.1484375 734.24609375 C-327.52910639 738.76695606 -321.13873321 739.546821 -313.3125 738.5 C-306.48730477 736.34618664 -301.05116753 732.65707953 -297.3125 726.5 C-293.82036697 719.13066984 -293.17578043 712.23446704 -295.75 704.5 C-298.51515592 698.10063916 -303.48959009 693.39900248 -309.7109375 690.30859375 C-320.35897532 686.99906848 -331.05601979 689.72951067 -338.75 697.6875 Z " fill="#4D6BFE" transform="translate(1393.3125,-0.49999999999999994)"/>
</svg>
